<svg width="19" height="19" viewBox="0 0 19 19" fill="none" xmlns="http://www.w3.org/2000/svg">
<path d="M10.5 3.44303C10.348 3.35526 10.1756 3.30906 10 3.30906C9.82448 3.30906 9.65204 3.35526 9.50002 3.44303L4.57202 6.29003C4.42001 6.3778 4.29377 6.50403 4.206 6.65605C4.11823 6.80806 4.07203 6.9805 4.07202 7.15603V12.846C4.07203 13.0216 4.11823 13.194 4.206 13.346C4.29377 13.498 4.42001 13.6243 4.57202 13.712L9.50002 16.557C9.65204 16.6448 9.82448 16.691 10 16.691C10.1756 16.691 10.348 16.6448 10.5 16.557L15.428 13.711C15.58 13.6233 15.7063 13.497 15.794 13.345C15.8818 13.193 15.928 13.0206 15.928 12.845V7.15503C15.928 6.9795 15.8818 6.80706 15.794 6.65505C15.7063 6.50303 15.58 6.3768 15.428 6.28903L10.5 3.44303ZM11 2.57703L15.928 5.42303C16.2321 5.59856 16.4845 5.85103 16.6601 6.15506C16.8356 6.45909 16.928 6.80397 16.928 7.15503V12.845C16.928 13.1961 16.8356 13.541 16.6601 13.845C16.4845 14.149 16.2321 14.4015 15.928 14.577L11 17.423C10.696 17.5986 10.3511 17.691 10 17.691C9.64895 17.691 9.30406 17.5986 9.00002 17.423L4.07202 14.577C3.76799 14.4015 3.51552 14.149 3.33998 13.845C3.16445 13.541 3.07203 13.1961 3.07202 12.845V7.15503C3.07203 6.80397 3.16445 6.45909 3.33998 6.15506C3.51552 5.85103 3.76799 5.59856 4.07202 5.42303L9.00002 2.57703C9.30406 2.40149 9.64895 2.30908 10 2.30908C10.3511 2.30908 10.696 2.40149 11 2.57703Z" fill="currentColor"/>
</svg>
