<svg width="16" height="15" viewBox="0 0 16 15" fill="none" xmlns="http://www.w3.org/2000/svg">
<path d="M2.29 0.900252C1.9825 0.77574 1.6325 0.922664 1.51 1.22896C1.18 2.03829 1 2.91983 1 3.84371C1 4.76759 1.18 5.64913 1.51 6.45846C1.635 6.76475 1.985 6.91168 2.2925 6.78717C2.6 6.66265 2.7475 6.31402 2.6225 6.00772C2.35 5.34283 2.2 4.6107 2.2 3.84371C2.2 3.07672 2.35 2.34459 2.6225 1.6772C2.7475 1.37091 2.5975 1.02227 2.2925 0.897762L2.29 0.900252ZM13.71 0.900252C13.4025 1.02476 13.255 1.3734 13.38 1.6797C13.6525 2.34708 13.8025 3.07921 13.8025 3.8462C13.8025 4.61319 13.6525 5.34532 13.38 6.0127C13.255 6.319 13.405 6.66763 13.71 6.79215C14.015 6.91666 14.3675 6.76724 14.4925 6.46344C14.82 5.65411 15.0025 4.77257 15.0025 3.84869C15.0025 2.92481 14.8225 2.04327 14.4925 1.23394C14.3675 0.927644 14.0175 0.780721 13.71 0.905232V0.900252ZM9.3025 4.77008C9.49 4.5086 9.6 4.18985 9.6 3.84371C9.6 2.96466 8.8825 2.24996 8 2.24996C7.1175 2.24996 6.4 2.96466 6.4 3.84371C6.4 4.18985 6.51 4.5086 6.6975 4.77008L3.2725 12.2806C3.09 12.6816 3.2675 13.1547 3.67 13.3365C4.0725 13.5183 4.5475 13.3415 4.73 12.9405L5.245 11.8149H10.76L11.275 12.9405C11.4575 13.3415 11.9325 13.5183 12.335 13.3365C12.7375 13.1547 12.915 12.6816 12.7325 12.2806L9.3025 4.77008ZM10.2125 10.6171H5.7875L6.3325 9.42183H9.665L10.21 10.6171H10.2125ZM8 5.76866L9.12 8.22652H6.8775L7.9975 5.76866H8ZM4.8825 2.48902C5.015 2.1877 4.8775 1.83409 4.5725 1.70211C4.2675 1.57012 3.915 1.70709 3.7825 2.0109C3.5375 2.57369 3.4 3.19376 3.4 3.84371C3.4 4.49366 3.5375 5.11373 3.7825 5.67652C3.915 5.97784 4.27 6.11729 4.5725 5.98531C4.875 5.85333 5.015 5.49971 4.8825 5.1984C4.7 4.78502 4.6 4.32681 4.6 3.84371C4.6 3.3606 4.7 2.9024 4.8825 2.48902ZM12.2175 2.0109C12.085 1.70958 11.73 1.57012 11.4275 1.70211C11.125 1.83409 10.985 2.1877 11.1175 2.48902C11.3 2.9024 11.4 3.3606 11.4 3.84371C11.4 4.32681 11.3 4.78502 11.1175 5.1984C10.985 5.49971 11.1225 5.85333 11.4275 5.98531C11.7325 6.11729 12.085 5.98033 12.2175 5.67652C12.4625 5.11373 12.6 4.49366 12.6 3.84371C12.6 3.19376 12.4625 2.57369 12.2175 2.0109Z" fill="currentColor"/>
</svg>
