<svg width="19" height="18" viewBox="0 0 19 18" fill="none" xmlns="http://www.w3.org/2000/svg">
<g clip-path="url(#clip0_364_837)">
<path d="M9.625 12.513C9.50833 12.471 9.4 12.4 9.3 12.3L5.7 8.7C5.5 8.5 5.404 8.26667 5.412 8C5.42 7.73334 5.516 7.5 5.7 7.3C5.9 7.1 6.13767 6.996 6.413 6.988C6.68833 6.98 6.92567 7.07567 7.125 7.275L9 9.15V2C9 1.71667 9.096 1.47934 9.288 1.288C9.48 1.09667 9.71733 1.00067 10 1C10.2827 0.999337 10.5203 1.09534 10.713 1.288C10.9057 1.48067 11.0013 1.718 11 2V9.15L12.875 7.275C13.075 7.075 13.3127 6.979 13.588 6.987C13.8633 6.995 14.1007 7.09934 14.3 7.3C14.4833 7.5 14.5793 7.73334 14.588 8C14.5967 8.26667 14.5007 8.5 14.3 8.7L10.7 12.3C10.6 12.4 10.4917 12.471 10.375 12.513C10.2583 12.555 10.1333 12.5757 10 12.575C9.86667 12.5743 9.74167 12.5537 9.625 12.513ZM4 17C3.45 17 2.97933 16.8043 2.588 16.413C2.19667 16.0217 2.00067 15.5507 2 15V13C2 12.7167 2.096 12.4793 2.288 12.288C2.48 12.0967 2.71733 12.0007 3 12C3.28267 11.9993 3.52033 12.0953 3.713 12.288C3.90567 12.4807 4.00133 12.718 4 13V15H16V13C16 12.7167 16.096 12.4793 16.288 12.288C16.48 12.0967 16.7173 12.0007 17 12C17.2827 11.9993 17.5203 12.0953 17.713 12.288C17.9057 12.4807 18.0013 12.718 18 13V15C18 15.55 17.8043 16.021 17.413 16.413C17.0217 16.805 16.5507 17.0007 16 17H4Z" fill="currentColor"/>
</g>
<defs>
<clipPath id="clip0_364_837">
<rect width="19" height="18" fill="currentColor"/>
</clipPath>
</defs>
</svg>
