<svg width="15" height="15" viewBox="0 0 15 15" fill="none" xmlns="http://www.w3.org/2000/svg">
<g clip-path="url(#clip0_414_4547)">
<path d="M7.5 13.75H6.5625C4.20563 13.75 3.02687 13.75 2.295 13.0175C1.56312 12.285 1.5625 11.1069 1.5625 8.75V6.25C1.5625 3.89313 1.5625 2.71437 2.295 1.9825C3.0275 1.25062 4.20563 1.25 6.5625 1.25H7.1875C9.54437 1.25 10.7231 1.25 11.455 1.9825C12.1869 2.715 12.1875 3.89313 12.1875 6.25V6.875M4.375 4.375H9.375M4.375 7.5H7.1875" stroke="currentColor" stroke-width="1.5" stroke-linecap="round" stroke-linejoin="round"/>
<path d="M10.9375 12.9831C12.0419 12.9831 12.9375 12.0675 12.9375 10.9375C12.9375 9.80812 12.0419 8.89188 10.9375 8.89188M10.9375 12.9831C9.83313 12.9831 8.9375 12.0675 8.9375 10.9375C8.9375 9.80812 9.83313 8.89188 10.9375 8.89188M10.9375 12.9831V13.75M10.9375 8.89188V8.125M9.11937 9.82188L8.43813 9.40313M13.4375 12.4719L12.7562 12.0531M12.7556 9.82188L13.4369 9.40313M8.4375 12.4719L9.11875 12.0531" stroke="currentColor" stroke-width="1.5" stroke-linecap="round"/>
</g>
<defs>
<clipPath id="clip0_414_4547">
<rect width="15" height="15" fill="currentColor"/>
</clipPath>
</defs>
</svg>
