<svg width="24" height="10" viewBox="0 0 24 10" fill="none" xmlns="http://www.w3.org/2000/svg">
<g clip-path="url(#clip0_364_869)">
<path fill-rule="evenodd" clip-rule="evenodd" d="M13.0599 9.05989C12.7787 9.34079 12.3974 9.49857 11.9999 9.49857C11.6024 9.49857 11.2212 9.34079 10.9399 9.05989L5.2819 3.40389C5.00064 3.12249 4.84268 2.74089 4.84277 2.34304C4.84287 1.94518 5.00101 1.56365 5.2824 1.28239C5.56379 1.00113 5.9454 0.843168 6.34325 0.843262C6.74111 0.843356 7.12264 1.00149 7.4039 1.28289L11.9999 5.87889L16.5959 1.28289C16.8787 1.00952 17.2575 0.858143 17.6508 0.861374C18.0441 0.864605 18.4204 1.02218 18.6986 1.30016C18.9769 1.57815 19.1348 1.95429 19.1384 2.34759C19.142 2.74088 18.991 3.11986 18.7179 3.40289L13.0609 9.06089L13.0599 9.05989Z" fill="currentColor"/>
</g>
<defs>
<clipPath id="clip0_364_869">
<rect width="24" height="10" fill="currentColor"/>
</clipPath>
</defs>
</svg>
