<svg width="19" height="19" viewBox="0 0 19 19" fill="none" xmlns="http://www.w3.org/2000/svg">
<path fill-rule="evenodd" clip-rule="evenodd" d="M7.53833 1.97913C7.79425 1.9829 8.04211 2.06924 8.24497 2.22531C8.44783 2.38138 8.59483 2.59881 8.66408 2.84522L11.2449 12.0206L12.3461 9.08355C12.4309 8.85704 12.5829 8.66184 12.7817 8.52404C12.9804 8.38624 13.2165 8.31243 13.4584 8.31247H15.8334C16.1484 8.31247 16.4504 8.43758 16.6731 8.66028C16.8958 8.88298 17.0209 9.18502 17.0209 9.49997C17.0209 9.81491 16.8958 10.117 16.6731 10.3397C16.4504 10.5624 16.1484 10.6875 15.8334 10.6875H14.2817L12.1957 16.2505C12.108 16.485 11.9483 16.6858 11.7396 16.8242C11.5308 16.9625 11.2837 17.0314 11.0335 17.0208C10.7833 17.0103 10.5429 16.9209 10.3465 16.7655C10.1502 16.6101 10.008 16.3966 9.94025 16.1555L7.46075 7.33872L6.67542 9.85305C6.60012 10.0948 6.4495 10.3062 6.24554 10.4563C6.04159 10.6065 5.79499 10.6874 5.54175 10.6875H3.16675C2.8518 10.6875 2.54976 10.5624 2.32706 10.3397C2.10436 10.117 1.97925 9.81491 1.97925 9.49997C1.97925 9.18502 2.10436 8.88298 2.32706 8.66028C2.54976 8.43758 2.8518 8.31247 3.16675 8.31247H4.66854L6.38725 2.81276C6.46355 2.56825 6.61686 2.35497 6.82431 2.20473C7.03176 2.05449 7.28222 1.97536 7.53833 1.97913Z" fill="currentColor"/>
</svg>
