<svg width="19" height="19" viewBox="0 0 19 19" fill="none" xmlns="http://www.w3.org/2000/svg">
<g clip-path="url(#clip0_414_4517)">
<g clip-path="url(#clip1_414_4517)">
<path opacity="0.3" d="M18 4.5H14.5L11 8.5H2V13.8C2 14.92 2 15.48 2.218 15.91C2.41 16.286 2.716 16.592 3.092 16.784C3.52 17.002 4.08 17.002 5.202 17.002H14.802C15.922 17.002 16.482 17.002 16.912 16.784C17.288 16.592 17.594 16.286 17.786 15.91C18.004 15.482 18.004 14.922 18.004 13.8V4.5H18Z" fill="currentColor"/>
<path d="M16.4998 4C16.0238 4 15.7458 4 15.4798 4.03C14.4336 4.14968 13.4633 4.63485 12.7398 5.4C12.5558 5.594 12.3888 5.818 12.1028 6.2C11.8028 6.6 11.6768 6.767 11.5408 6.91C10.9764 7.50285 10.2234 7.88109 9.41084 7.98C9.21584 8.002 9.00584 8.003 8.50684 8.003H2.00684V9.003H8.50684C8.98284 9.003 9.26084 9.003 9.52684 8.973C10.573 8.85332 11.5434 8.36815 12.2668 7.603C12.4508 7.408 12.6178 7.184 12.9038 6.803C13.2038 6.403 13.3298 6.235 13.4658 6.093C14.0303 5.50015 14.7832 5.12191 15.5958 5.023C15.7908 5.001 16.0008 5 16.4998 5H17.9998V4H16.4998Z" fill="currentColor"/>
</g>
</g>
<defs>
<clipPath id="clip0_414_4517">
<rect width="19" height="19" fill="currentColor" transform="translate(2 2)"/>
</clipPath>
<clipPath id="clip1_414_4517">
<rect width="19" height="19" fill="currentColor" transform="translate(2 3)"/>
</clipPath>
</defs>
</svg>
