<svg width="19" height="18" viewBox="0 0 19 18" fill="none" xmlns="http://www.w3.org/2000/svg">
<g clip-path="url(#clip0_364_794)">
<path d="M16.9833 6.14169L15.9583 7.68335C16.4526 8.66925 16.6946 9.76238 16.6626 10.8648C16.6306 11.9672 16.3256 13.0445 15.775 14H4.22498C3.50929 12.7584 3.21273 11.3193 3.37926 9.89591C3.5458 8.47253 4.16657 7.14071 5.14955 6.09788C6.13252 5.05504 7.42537 4.35672 8.83643 4.10643C10.2475 3.85614 11.7016 4.06721 12.9833 4.70835L14.525 3.68335C12.9554 2.67687 11.0936 2.22586 9.23739 2.40247C7.38119 2.57908 5.63785 3.3731 4.28622 4.65753C2.9346 5.94196 2.05278 7.64258 1.78183 9.48737C1.51088 11.3322 1.86644 13.2145 2.79165 14.8334C2.93707 15.0852 3.14589 15.2947 3.39734 15.4409C3.64879 15.5871 3.93412 15.6649 4.22498 15.6667H15.7666C16.0603 15.6679 16.3491 15.5914 16.6037 15.4451C16.8584 15.2987 17.0698 15.0877 17.2166 14.8334C17.9845 13.5033 18.3698 11.9869 18.3301 10.4516C18.2904 8.91638 17.8272 7.42195 16.9916 6.13335L16.9833 6.14169ZM8.82498 11.8417C8.97977 11.9966 9.16358 12.1196 9.36591 12.2035C9.56824 12.2873 9.78512 12.3305 10.0041 12.3305C10.2232 12.3305 10.4401 12.2873 10.6424 12.2035C10.8447 12.1196 11.0285 11.9966 11.1833 11.8417L15.9 4.76669L8.82498 9.48335C8.67002 9.63814 8.54709 9.82196 8.46321 10.0243C8.37934 10.2266 8.33617 10.4435 8.33617 10.6625C8.33617 10.8815 8.37934 11.0984 8.46321 11.3008C8.54709 11.5031 8.67002 11.6869 8.82498 11.8417Z" fill="currentColor"/>
</g>
<defs>
<clipPath id="clip0_364_794">
<rect width="19" height="18" fill="currentColor"/>
</clipPath>
</defs>
</svg>
