<svg width="17" height="14" viewBox="0 0 17 14" fill="none" xmlns="http://www.w3.org/2000/svg">
<g clip-path="url(#clip0_364_899)">
<path d="M3.36218 10.2666H4.21218V11.6666H3.36218V10.2666Z" fill="currentColor"/>
<path d="M5.72339 10.2666H6.57339V11.6666H5.72339V10.2666Z" fill="currentColor"/>
<path d="M8.07971 10.2666H8.92971V11.6666H8.07971V10.2666Z" fill="currentColor"/>
<path d="M10.4362 10.2666H11.2862V11.6666H10.4362V10.2666Z" fill="currentColor"/>
<path d="M12.7972 10.2666H13.6472V11.6666H12.7972V10.2666Z" fill="currentColor"/>
<path d="M2.94189 8.3999H14.1288V9.05324H2.94189V8.3999Z" fill="currentColor"/>
<path d="M16.0131 8.61927L15.5833 7.1866H14.5728L15.1111 8.8946V12.5999H1.8889V8.8946L3.36696 4.19993H9.23668L9.77974 3.2666H3.36696C3.16522 3.2667 2.96881 3.33064 2.80651 3.44904C2.6442 3.56745 2.52453 3.73411 2.46501 3.9246L0.986958 8.62393C0.958936 8.7131 0.94461 8.80591 0.944458 8.89927V12.5999C0.944458 12.8475 1.04396 13.0849 1.22108 13.2599C1.3982 13.4349 1.63842 13.5333 1.8889 13.5333H15.1111C15.3616 13.5333 15.6018 13.4349 15.7789 13.2599C15.9561 13.0849 16.0556 12.8475 16.0556 12.5999V8.8946C16.0554 8.80124 16.0411 8.70843 16.0131 8.61927Z" fill="currentColor"/>
<path d="M12.6792 0.531929L9.97808 5.13326C9.91524 5.22442 9.87917 5.33099 9.87385 5.44116C9.86854 5.55133 9.8942 5.66081 9.94799 5.75745C10.0018 5.8541 10.0816 5.93414 10.1786 5.9887C10.2756 6.04327 10.386 6.07023 10.4975 6.0666H15.9045C16.016 6.07023 16.1264 6.04327 16.2234 5.9887C16.3204 5.93414 16.4002 5.8541 16.454 5.75745C16.5078 5.66081 16.5335 5.55133 16.5281 5.44116C16.5228 5.33099 16.4868 5.22442 16.4239 5.13326L13.7228 0.531929C13.6695 0.441889 13.5933 0.367201 13.5018 0.315298C13.4102 0.263394 13.3065 0.236084 13.201 0.236084C13.0955 0.236084 12.9918 0.263394 12.9002 0.315298C12.8087 0.367201 12.7325 0.441889 12.6792 0.531929Z" fill="currentColor"/>
</g>
<defs>
<clipPath id="clip0_364_899">
<rect width="17" height="14" fill="white"/>
</clipPath>
</defs>
</svg>
