<svg width="19" height="19" viewBox="0 0 19 19" fill="none" xmlns="http://www.w3.org/2000/svg">
<path d="M8.82756 14.9184C8.64622 14.7384 8.55556 14.5156 8.55556 14.25C8.55556 13.9844 8.64622 13.7619 8.82756 13.5825C9.00889 13.4031 9.23304 13.3131 9.5 13.3125C9.76696 13.3119 9.99143 13.4019 10.1734 13.5825C10.3554 13.7631 10.4457 13.9856 10.4444 14.25C10.4432 14.5144 10.3525 14.7372 10.1724 14.9184C9.99237 15.0997 9.76822 15.1894 9.5 15.1875C9.23178 15.1856 9.00763 15.0966 8.82756 14.9184ZM8.82756 11.1675C8.64622 10.9881 8.55556 10.7656 8.55556 10.5V6.75C8.55556 6.48437 8.64622 6.26187 8.82756 6.0825C9.00889 5.90312 9.23304 5.81312 9.5 5.8125C9.76696 5.81187 9.99143 5.90187 10.1734 6.0825C10.3554 6.26312 10.4457 6.48562 10.4444 6.75V10.5C10.4444 10.7656 10.3538 10.9884 10.1724 11.1684C9.99111 11.3484 9.76696 11.4381 9.5 11.4375C9.23304 11.4369 9.00889 11.3469 8.82756 11.1675ZM2.88889 10.5C2.88889 11.3437 3.05826 12.1212 3.397 12.8325C3.73574 13.5437 4.196 14.1569 4.77778 14.6719V13.3125C4.77778 13.0469 4.86845 12.8244 5.04978 12.645C5.23111 12.4656 5.45526 12.3756 5.72222 12.375C5.98919 12.3744 6.21365 12.4644 6.39561 12.645C6.57758 12.8256 6.66793 13.0481 6.66667 13.3125V17.0625C6.66667 17.3281 6.576 17.5509 6.39467 17.7309C6.21333 17.9109 5.98919 18.0006 5.72222 18H1.94445C1.67685 18 1.45271 17.91 1.272 17.73C1.0913 17.55 1.00063 17.3275 1 17.0625C0.999374 16.7975 1.09004 16.575 1.272 16.395C1.45397 16.215 1.67811 16.125 1.94445 16.125H3.57361C2.77084 15.4375 2.14121 14.6094 1.68473 13.6406C1.22824 12.6719 1 11.625 1 10.5C1 9.03125 1.38565 7.70312 2.15695 6.51562C2.92824 5.32812 3.93565 4.42187 5.17917 3.79687C5.39954 3.67187 5.63187 3.66406 5.87617 3.77344C6.12046 3.88281 6.28165 4.0625 6.35972 4.3125C6.4378 4.5625 6.42583 4.80469 6.32383 5.03906C6.22183 5.27344 6.06065 5.45312 5.84028 5.57812C4.9588 6.0625 4.24669 6.73844 3.70395 7.60594C3.16121 8.47344 2.88952 9.43812 2.88889 10.5ZM16.1111 10.5C16.1111 9.65625 15.9421 8.87875 15.6039 8.1675C15.2658 7.45625 14.8053 6.84312 14.2222 6.32812V7.6875C14.2222 7.95312 14.1316 8.17594 13.9502 8.35594C13.7689 8.53594 13.5447 8.62562 13.2778 8.625C13.0108 8.62437 12.7867 8.53437 12.6053 8.355C12.424 8.17562 12.3333 7.95312 12.3333 7.6875V3.9375C12.3333 3.67187 12.424 3.44938 12.6053 3.27C12.7867 3.09063 13.0108 3.00062 13.2778 3H17.0556C17.3231 3 17.5476 3.09 17.7289 3.27C17.9103 3.45 18.0006 3.6725 18 3.9375C17.9994 4.2025 17.9087 4.42531 17.728 4.60594C17.5473 4.78656 17.3231 4.87625 17.0556 4.875H15.4264C16.2292 5.5625 16.8588 6.39062 17.3153 7.35937C17.7718 8.32812 18 9.375 18 10.5C18 11.9687 17.6143 13.3009 16.8431 14.4966C16.0718 15.6922 15.0644 16.6022 13.8208 17.2266C13.6005 17.3516 13.3684 17.3556 13.1248 17.2387C12.8811 17.1219 12.7196 16.9381 12.6403 16.6875C12.5609 16.4369 12.5729 16.1947 12.6762 15.9609C12.7794 15.7272 12.9406 15.5475 13.1597 15.4219C14.0412 14.9375 14.7536 14.2619 15.297 13.395C15.8404 12.5281 16.1117 11.5631 16.1111 10.5Z" fill="currentColor"/>
</svg>
