<svg width="24" height="10" viewBox="0 0 24 10" fill="none" xmlns="http://www.w3.org/2000/svg">
<path fill-rule="evenodd" clip-rule="evenodd" d="M13.0599 9.06001C12.7787 9.34091 12.3974 9.49869 11.9999 9.49869C11.6024 9.49869 11.2212 9.34091 10.9399 9.06001L5.2819 3.40401C5.00064 3.12262 4.84268 2.74102 4.84277 2.34316C4.84287 1.9453 5.00101 1.56377 5.2824 1.28251C5.56379 1.00125 5.9454 0.84329 6.34325 0.843384C6.74111 0.843478 7.12264 1.00162 7.4039 1.28301L11.9999 5.87901L16.5959 1.28301C16.8787 1.00964 17.2575 0.858265 17.6508 0.861496C18.0441 0.864727 18.4204 1.0223 18.6986 1.30028C18.9769 1.57827 19.1348 1.95441 19.1384 2.34771C19.142 2.741 18.991 3.11998 18.7179 3.40301L13.0609 9.06101L13.0599 9.06001Z" fill="#727272"/>
</svg>
