<svg width="16" height="11" viewBox="0 0 16 11" fill="none" xmlns="http://www.w3.org/2000/svg">
<g clip-path="url(#clip0_364_865)">
<path fill-rule="evenodd" clip-rule="evenodd" d="M6.93988 0.939901C7.22113 0.659 7.60238 0.501221 7.99988 0.501221C8.39738 0.501221 8.77863 0.659 9.05988 0.939901L14.7179 6.5959C14.8571 6.73523 14.9676 6.90063 15.043 7.08265C15.1183 7.26468 15.1571 7.45975 15.157 7.65675C15.157 7.85375 15.1181 8.04882 15.0427 8.2308C14.9672 8.41279 14.8567 8.57813 14.7174 8.7174C14.578 8.85667 14.4126 8.96713 14.2306 9.04247C14.0486 9.11782 13.8535 9.15658 13.6565 9.15653C13.4595 9.15648 13.2645 9.11763 13.0825 9.0422C12.9005 8.96677 12.7351 8.85623 12.5959 8.7169L7.99988 4.1219L3.40388 8.7179C3.26558 8.86123 3.10011 8.97558 2.91715 9.05428C2.73418 9.13298 2.53737 9.17445 2.3382 9.17627C2.13903 9.1781 1.9415 9.14024 1.75712 9.0649C1.57274 8.98957 1.40521 8.87827 1.2643 8.7375C1.1234 8.59672 1.01194 8.4293 0.936432 8.24499C0.860924 8.06068 0.822877 7.86318 0.824514 7.66401C0.82615 7.46484 0.867436 7.26799 0.945962 7.08495C1.02449 6.90191 1.13868 6.73634 1.28188 6.5979L6.93988 0.939901Z" fill="currentColor"/>
</g>
<defs>
<clipPath id="clip0_364_865">
<rect width="16" height="11" fill="currentColor"/>
</clipPath>
</defs>
</svg>
